# xmcd
#
# Track frame offsets: 
#        150
#        3380
#        17732
#        20017
#        33072
#        47117
#        59567
#        72297
#        86755
#        100170
#        113595
#        126435
#        139032
#        150080
#        162232
#        176100
#        189095
#        200980
#        214775
#        228305
#        240132
#        251845
#        264430
#        275992
#        287047
#        298452
#        311630
#        325752
#        337582
#
# Disc length: 4675 seconds
#
# Revision: 2
# Processed by: cddbd v1.5.1PL2 Copyright (c) Steve Scherf et al.
# Submitted via: ExactAudioCopy v0.95b3
#
DISCID=a312411d
DTITLE=Various Artist - Roots n' Blues: The Retrospective 1925-1950 [disc 3]
DYEAR=1992
DGENRE=Blues
TTITLE0=W. Lee O'Daniel and His Light Crust Doughboys - Doughboys Theme 
TTITLE0=Song #1
TTITLE1=W. Lee O'Daniel and His Hillbilly Boys - Ida (Sweet as Apple Cid
TTITLE1=er)
TTITLE2=W. Lee O'Daniel and His Light Crust Doughboys - Doughboys Theme 
TTITLE2=Song #2
TTITLE3=Blind Willie (McTell) and partner - Bell Street Lightnin'
TTITLE4=Charlie Patton - Jersey Bull Blues
TTITLE5=Walter Roland - Every Morning Blues
TTITLE6=Blue Ridge Ramblers - D Blues
TTITLE7=Breaux Freres - La Valse des Yeux Bleu (Blue Eyes Waltz)
TTITLE8=Lucille Bogan (as Bessie Jackson) - Skin Game Blues
TTITLE9=Leroy Carr with Scrapper Blackwell - Good Woman Blues
TTITLE10=Josh White (as Pinewood Tom) - Sissy Man
TTITLE11=The Rhythm Wreckers - Blue Yodel #2 (My Lovin' Gal Lucille)
TTITLE12=The Anglin Twins (Jack and Jim) - Just Inside the Pearly Gates
TTITLE13=Bumble Bee Slim (Amos Easton) - Hard Rocks in My Bed
TTITLE14=The Two Charles - Tired Feelin' Blues
TTITLE15=Eldon Baker and His Brown County Revellers - One Eyed Sam
TTITLE16=A'nt Idy Harper and the Coon Creek Girls - Poor Naomi Wise
TTITLE17=(Kid) Prince Moore - South Bound Blues
TTITLE18=Big Bill Broonzy - C and A Blues
TTITLE19=George Curry - My Last Five Dollars
TTITLE20=The Nite Owls - Memphis Blues
TTITLE21=The Alley Boys of Abbeville - Pourquoi Tu M'aime Pas
TTITLE22=Reverend Benny Campbell (Meetin' House in Dixie) - Have Mercy
TTITLE22=on Me
TTITLE23=Albert Ammons - Shout for Joy
TTITLE24=Jack Kelly - Flower Blues
TTITLE25=Cliff Carlisle (as Bob Clifford) - Onion Eating Mama
TTITLE26=Callahan Bros. - Brown's Ferry Blues #2
TTITLE27=Little Buddy Doyle - Slick Capers Blues
TTITLE28=Bill "Jazz" Gillum (as Bill McKinley) - Poor Boy Blues
EXTD=4CD: Columbia/Legacy C4K 47911 (1992-06-30), UPC 074644791129.
EXTT0=Previously unissued
EXTT1=Previously unissued
EXTT2=Previously unissued
EXTT3=Previously unissued
EXTT4=
EXTT5=Previously unissued take
EXTT6=
EXTT7=
EXTT8=
EXTT9=
EXTT10=
EXTT11=
EXTT12=
EXTT13=
EXTT14=Previously unissued
EXTT15=Previously unissued
EXTT16=
EXTT17=Previously unissued
EXTT18=
EXTT19=Previously unissued
EXTT20=
EXTT21=Previously unissued
EXTT22=
EXTT23=Previously unissued take
EXTT24=Previously unissued
EXTT25=Previously unissued take
EXTT26=
EXTT27=Previously unissued
EXTT28=Previously unissued
PLAYORDER=
